<?xml version="1.0" encoding="UTF-8"?>
<svg width="10px" height="6px" viewBox="0 0 10 6" version="1.1" xmlns="http://www.w3.org/2000/svg" xmlns:xlink="http://www.w3.org/1999/xlink">
    <!-- Generator: Sketch 51.2 (57519) - http://www.bohemiancoding.com/sketch -->
    <title>down_arrow</title>
    <desc>Created with Sketch.</desc>
    <defs></defs>
    <g id="down_arrow" stroke="none" stroke-width="1" fill="none" fill-rule="evenodd">
        <g id="angle-arrow-down-copy-3" fill="#0066A7" fill-rule="nonzero">
            <path d="M9.90008037,0.618505702 L9.39911346,0.10312641 C9.33235999,0.0343032528 9.25546364,0 9.1685297,0 C9.08180634,0 9.00494509,0.0343032528 8.93819162,0.10312641 L5.00005264,4.15462943 L1.06208915,0.103234737 C0.995300584,0.0344115789 0.91843933,0.000108326061 0.831610682,0.000108326061 C0.744746937,0.000108326061 0.667885684,0.0344115789 0.601132212,0.103234737 L0.100235497,0.618650137 C0.0333416395,0.68732886 0,0.766406885 0,0.855775885 C0,0.945072669 0.0334469289,1.02415069 0.100235497,1.09282942 L4.76957417,5.89694581 C4.83632765,5.96566064 4.913224,6 5.00005264,6 C5.08688129,6 5.16363726,5.96566064 5.23035563,5.89694581 L9.90008037,1.09282942 C9.96683384,1.02411458 10,0.94503656 10,0.855775885 C10,0.766406885 9.96683384,0.68732886 9.90008037,0.618505702 Z" id="Shape"></path>
        </g>
    </g>
</svg>